<svg version="1.1" width="91" height="91" viewBox="0 0 91 91" fill="none" xmlns="http://www.w3.org/2000/svg">

  <g>
    <rect x="0.5" y="0.5" stroke="#707070" width="90" height="90" style="stroke-width: 1;"></rect>
    <g>
      <path fill="#707070" d="M24.3,55.4h7.6V57h-5.8v4.7h5.4v1.5h-5.4v6.4h-1.8V55.4z"></path>
      <path fill="#707070" d="M36.8,65.1l-1.5,4.5h-1.9l4.8-14.2h2.2l4.8,14.2h-2l-1.5-4.5H36.8z M41.5,63.7l-1.4-4.1
			c-0.3-0.9-0.5-1.8-0.7-2.6h0c-0.2,0.8-0.4,1.7-0.7,2.6l-1.4,4.1H41.5z"></path>
      <path fill="#707070" d="M57.3,69.1c-0.7,0.3-2,0.7-3.7,0.7c-4,0-7-2.5-7-7.2c0-4.4,3-7.4,7.4-7.4c1.8,0,2.9,0.4,3.4,0.6l-0.4,1.5
			c-0.7-0.3-1.7-0.6-2.9-0.6c-3.3,0-5.5,2.1-5.5,5.8c0,3.5,2,5.7,5.4,5.7c1.1,0,2.2-0.2,3-0.6L57.3,69.1z"></path>
      <path fill="#707070" d="M66.9,63h-5.5v5.1h6.1v1.5h-8V55.4h7.6V57h-5.8v4.5h5.5V63z"></path>
    </g>
    <g>
      <path fill="#707070" d="M16.5,19.7c1.1-0.2,2.8-0.4,4.6-0.4c2.5,0,4.1,0.4,5.3,1.4c1,0.7,1.6,1.9,1.6,3.4c0,1.9-1.2,3.5-3.3,4.3v0.1
			c1.8,0.5,4,2,4,4.9c0,1.7-0.7,2.9-1.6,3.9c-1.4,1.2-3.5,1.8-6.7,1.8c-1.7,0-3-0.1-3.9-0.2V19.7z M19,27.7h2.3
			c2.6,0,4.2-1.4,4.2-3.2c0-2.3-1.7-3.2-4.3-3.2c-1.1,0-1.8,0.1-2.2,0.2V27.7z M19,36.9c0.5,0.1,1.2,0.1,2.1,0.1c2.6,0,5-0.9,5-3.8
			c0-2.6-2.3-3.7-5-3.7H19V36.9z"></path>
      <path fill="#707070" d="M34.2,32.7l-2,6.1h-2.6l6.6-19.4h3l6.6,19.4h-2.7L41,32.7H34.2z M40.5,30.8l-1.9-5.6c-0.4-1.3-0.7-2.4-1-3.5
			h-0.1c-0.3,1.1-0.6,2.3-1,3.5l-1.9,5.6H40.5z"></path>
      <path fill="#707070" d="M61.2,38.2c-0.9,0.5-2.8,0.9-5.1,0.9c-5.5,0-9.6-3.4-9.6-9.8c0-6.1,4.1-10.2,10.1-10.2c2.4,0,3.9,0.5,4.6,0.9
			l-0.6,2c-0.9-0.5-2.3-0.8-3.9-0.8c-4.5,0-7.6,2.9-7.6,8c0,4.7,2.7,7.8,7.4,7.8c1.5,0,3.1-0.3,4.1-0.8L61.2,38.2z"></path>
      <path fill="#707070" d="M63.3,19.5h2.5v9.3h0.1c0.5-0.7,1-1.4,1.5-2.1l5.9-7.3h3.1l-7,8.2L77,38.8h-3l-6.4-9.5l-1.8,2.1v7.4h-2.5
			V19.5z"></path>
    </g>
  </g>
</svg>