<svg width="91" height="91" viewBox="0 0 91 91" fill="none" xmlns="http://www.w3.org/2000/svg">


  <g>
    <rect x="0.5" y="0.5" stroke="#707070" width="90" height="90" style="stroke-width: 1px;"></rect>
    <g>
      <path fill="#707070" d="M24.3,55.4h7.6V57h-5.8v4.7h5.4v1.5h-5.4v6.4h-1.8V55.4z"></path>
      <path fill="#707070" d="M36.8,65.1l-1.5,4.5h-1.9l4.8-14.2h2.2l4.8,14.2h-2l-1.5-4.5H36.8z M41.5,63.7l-1.4-4.1
			c-0.3-0.9-0.5-1.8-0.7-2.6h0c-0.2,0.8-0.4,1.7-0.7,2.6l-1.4,4.1H41.5z"></path>
      <path fill="#707070" d="M57.3,69.1c-0.7,0.3-2,0.7-3.7,0.7c-4,0-7-2.5-7-7.2c0-4.4,3-7.4,7.4-7.4c1.8,0,2.9,0.4,3.4,0.6l-0.4,1.5
			c-0.7-0.3-1.7-0.6-2.9-0.6c-3.3,0-5.5,2.1-5.5,5.8c0,3.5,2,5.7,5.4,5.7c1.1,0,2.2-0.2,3-0.6L57.3,69.1z"></path>
      <path fill="#707070" d="M66.9,63h-5.5v5.1h6.1v1.5h-8V55.4h7.6V57h-5.8v4.5h5.5V63z"></path>
    </g>
    <g>
      <path fill="#707070" d="M8.5,19.5h10.4v2.1H11V28h7.3v2.1H11v8.8H8.5V19.5z"></path>
      <path fill="#707070" d="M21.5,19.7c1.3-0.3,3.1-0.4,4.8-0.4c2.7,0,4.4,0.5,5.6,1.6c1,0.9,1.5,2.2,1.5,3.7c0,2.6-1.6,4.3-3.6,4.9v0.1
			c1.5,0.5,2.4,1.9,2.8,3.9c0.6,2.7,1.1,4.6,1.5,5.3h-2.6c-0.3-0.5-0.7-2.2-1.3-4.6c-0.6-2.7-1.6-3.7-3.9-3.8H24v8.4h-2.5V19.7z
			 M24,28.5h2.6c2.7,0,4.4-1.5,4.4-3.7c0-2.5-1.8-3.6-4.5-3.6c-1.2,0-2.1,0.1-2.5,0.2V28.5z"></path>
      <path fill="#707070" d="M52.5,28.9c0,6.7-4.1,10.2-9,10.2c-5.1,0-8.7-4-8.7-9.8c0-6.1,3.8-10.2,9-10.2C49,19.1,52.5,23.2,52.5,28.9z
			 M37.4,29.3c0,4.1,2.2,7.8,6.2,7.8c4,0,6.2-3.6,6.2-8c0-3.9-2-7.9-6.2-7.9C39.5,21.2,37.4,25,37.4,29.3z"></path>
      <path fill="#707070" d="M54.7,38.8V19.5h2.7l6.2,9.8c1.4,2.3,2.6,4.3,3.5,6.3l0.1,0c-0.2-2.6-0.3-4.9-0.3-8v-8.1h2.4v19.4h-2.5
			L60.6,29c-1.4-2.2-2.6-4.4-3.6-6.5l-0.1,0c0.1,2.4,0.2,4.8,0.2,8v8.3H54.7z"></path>
      <path fill="#707070" d="M76.3,21.6h-5.9v-2.1h14.3v2.1h-5.9v17.2h-2.5V21.6z"></path>
    </g>
  </g>


</svg>